<svg width="24" height="24" viewBox="0 0 24 24" fill="none" xmlns="http://www.w3.org/2000/svg">
<path d="M0 12C0 18.6274 5.37258 24 12 24C18.6274 24 24 18.6274 24 12C24 5.37258 18.6274 0 12 0C5.37258 0 0 5.37258 0 12Z" fill="#E60023"/>
<path d="M12 6C8.7 6 6 8.7 6 12C6 14.475 7.5 16.575 9.6 17.475C9.6 17.025 9.6 16.575 9.675 16.125C9.825 15.6 10.425 12.825 10.425 12.825C10.425 12.825 10.2 12.45 10.2 11.85C10.2 10.95 10.725 10.275 11.325 10.275C11.85 10.275 12.15 10.65 12.15 11.175C12.15 11.7 11.775 12.525 11.625 13.275C11.475 13.875 11.925 14.4 12.6 14.4C13.725 14.4 14.475 12.975 14.475 11.175C14.475 9.825 13.575 8.85 12 8.85C10.2 8.85 9.075 10.2 9.075 11.7C9.075 12.225 9.225 12.6 9.45 12.9C9.525 13.05 9.6 13.05 9.525 13.2C9.525 13.275 9.45 13.575 9.375 13.65C9.3 13.8 9.225 13.875 9.075 13.8C8.25 13.425 7.875 12.525 7.875 11.475C7.875 9.75 9.3 7.725 12.15 7.725C14.475 7.725 15.975 9.375 15.975 11.175C15.975 13.5 14.7 15.3 12.75 15.3C12.075 15.3 11.475 14.925 11.25 14.55C11.25 14.55 10.875 15.9 10.8 16.2C10.65 16.65 10.425 17.1 10.2 17.475C10.725 17.625 11.325 17.7 11.925 17.7C15.225 17.7 17.925 15 17.925 11.7C18 8.7 15.3 6 12 6Z" fill="white"/>
</svg>
